<?xml version="1.0" encoding="utf-8"?>
<!-- Generator: Adobe Illustrator 24.0.0, SVG Export Plug-In . SVG Version: 6.00 Build 0)  -->
<svg version="1.1" id="Capa_1" xmlns="http://www.w3.org/2000/svg" xmlns:xlink="http://www.w3.org/1999/xlink" x="0px" y="0px"
	 viewBox="0 0 512 512" style="enable-background:new 0 0 512 512;" xml:space="preserve">
<style type="text/css">
	.st0{fill:#FFFFFF;}
</style>
<path class="st0" d="M437,75C388.7,26.6,324.4,0,256,0S123.3,26.6,75,75C26.6,123.3,0,187.6,0,256s26.6,132.7,75,181
	c48.4,48.4,112.6,75,181,75s132.7-26.6,181-75c48.4-48.4,75-112.6,75-181S485.4,123.3,437,75L437,75z M481.5,241.8H344.2
	c1.7-27.6,8.2-54.2,19.4-79.5c11.7-26.2,28-49.7,48.4-69.9c1.3,1.2,2.6,2.5,3.8,3.7C455.1,135.5,478.2,186.8,481.5,241.8
	L481.5,241.8z M336.3,362.2c12.8,28.7,30.5,54.4,52.5,76.7c-34.4,25.1-75,39.8-117.9,42.6V271.8h43.2
	C316.1,303.1,323.5,333.5,336.3,362.2L336.3,362.2z M175.6,149.7c-12.8-28.6-30.5-54.3-52.5-76.6c34.4-25.1,75-39.8,117.9-42.6
	v211.3h-43.1C196.2,209.8,188.7,178.9,175.6,149.7z M314.1,241.8H271V30.5c42.9,2.8,83.5,17.5,117.9,42.6
	c-22.1,22.4-39.8,48.2-52.7,76.9C323.2,179.2,315.8,210,314.1,241.8z M197.8,271.8H241v209.7c-42.9-2.8-83.5-17.5-117.9-42.6
	c22.1-22.3,39.7-48,52.6-76.7C188.5,333.5,195.9,303.1,197.8,271.8L197.8,271.8z M96.2,96.2c1.3-1.3,2.5-2.5,3.8-3.7
	c20.3,20.1,36.5,43.4,48.2,69.5c11.4,25.3,17.9,52.1,19.6,79.8H30.5C33.8,186.8,56.9,135.5,96.2,96.2L96.2,96.2z M30.5,271.8h137.2
	c-1.8,27.1-8.3,53.3-19.4,78.1c-11.7,26.1-27.9,49.5-48.3,69.7c-1.3-1.2-2.6-2.5-3.8-3.7C57.2,376.9,34.3,326.2,30.5,271.8
	L30.5,271.8z M415.8,415.8c-1.3,1.3-2.5,2.5-3.8,3.7c-20.4-20.1-36.6-43.5-48.3-69.6c-11.1-24.8-17.6-51.1-19.4-78.2h137.2
	C477.7,326.2,454.8,376.9,415.8,415.8L415.8,415.8z"/>
</svg>
