<?xml version="1.0" encoding="utf-8"?>
<!-- Generator: Adobe Illustrator 24.0.0, SVG Export Plug-In . SVG Version: 6.00 Build 0)  -->
<svg version="1.1" id="Capa_1" xmlns="http://www.w3.org/2000/svg" xmlns:xlink="http://www.w3.org/1999/xlink" x="0px" y="0px"
	 viewBox="0 0 480 512" style="enable-background:new 0 0 480 512;" xml:space="preserve">
<style type="text/css">
	.st0{fill:#FFFFFF;}
</style>
<g>
	<g>
		<path class="st0" d="M424.5,177c-4.6-28-21.2-63-73.3-78.9V70c0-38.6-31.4-70-70-70H116.1c-38.6,0-70,31.4-70,70v60
			c0,23.7,0,79.1,5.5,134.2c6.3,62.9,18.1,110.1,35.2,140.5V482c0,16.5,13.5,30,30,30h163.7c16.5,0,30-13.5,30-30v-74.4
			c26.6-17.2,56.7-52.3,79.9-93.5C406.7,285,432.9,228.5,424.5,177L424.5,177z M116.1,20h165.1c27.6,0,50,22.4,50,50v23.4
			c-18.4-3-35.2-0.6-49,7.2c-13.8,7.8-23.2,20.2-26.6,35c-3.9,17,0.6,34.7,12.5,49.9c7.3,9.3,17.2,17.3,29.3,23.8
			c-20.1,19.9-46.8,30.7-76.3,30.7h-45.1c-60.7,0-110-49.3-110-110V70h49.3c5.5,0,10-4.5,10-10s-4.5-10-10-10H70.3
			C78,32.4,95.6,20,116.1,20L116.1,20z M280.5,492H116.8c-5.5,0-10-4.5-10-10v-80c0-5.5,4.5-10,10-10h163.7c5.5,0,10,4.5,10,10v0.2
			v0v9.8h0H178.3c-5.5,0-10,4.5-10,10v40c0,5.5,4.5,10,10,10h112.2h0v10C290.5,487.5,286,492,280.5,492L280.5,492z M290.5,452H188.3
			v-20h102.2h0V452z M306.1,386.3c-5.3-8.6-14.8-14.3-25.6-14.3H116.8c-7.7,0-14.7,2.9-20,7.6c-20.2-47.9-27.2-121.1-29.5-178.5
			c23.2,35.4,63.3,58.9,108.8,58.9h45.1c37.6,0,71.4-14.9,95.8-42.2c3.9,1.3,7.8,2.6,12,3.7c5.3,1.4,10.8-1.8,12.2-7.1
			c1.4-5.3-1.8-10.8-7.1-12.2c-22.6-6-40-16-50.2-28.9c-8.2-10.4-11.3-22.1-8.8-33.1c3.9-17.2,22.9-32.8,55.2-26.5
			c43.5,8.5,68.6,30.9,74.4,66.6C415.9,248.9,354.6,350,306.1,386.3L306.1,386.3z"/>
		<path class="st0" d="M247.9,286.8c-2.9-4.7-9-6.2-13.8-3.3l-35.5,21.8l-35.5-21.8c-4.7-2.9-10.9-1.4-13.8,3.3s-1.4,10.9,3.3,13.8
			l26.8,16.5l-26.8,16.5c-4.7,2.9-6.2,9-3.3,13.8c1.9,3.1,5.2,4.8,8.5,4.8c1.8,0,3.6-0.5,5.2-1.5l35.5-21.8l35.5,21.8
			c1.6,1,3.4,1.5,5.2,1.5c3.4,0,6.6-1.7,8.5-4.8c2.9-4.7,1.4-10.9-3.3-13.8L217.8,317l26.8-16.5
			C249.3,297.6,250.8,291.5,247.9,286.8z"/>
		<path class="st0" d="M160.4,70L160.4,70c5.5,0,10-4.5,10-10s-4.5-10-10-10c-5.5,0-10,4.5-10,10S154.9,70,160.4,70z"/>
	</g>
</g>
</svg>
