<svg id="Capa_1" data-name="Capa 1" xmlns="http://www.w3.org/2000/svg" viewBox="0 0 557.26 172.06"><defs><style>.cls-1,.cls-2{fill:#fff;}.cls-2{stroke:#fff;stroke-linecap:round;stroke-miterlimit:10;stroke-width:2.26px;}</style></defs><title>LOGOS</title><path class="cls-1" d="M481.84,88v5.93h-7.32v23.84h-6V93.94h-7.33V88Z"/><path class="cls-1" d="M484.76,88h9.71a10.93,10.93,0,0,1,7.8,3,8.4,8.4,0,0,1,2.88,6.76v.78a9.65,9.65,0,0,1-1.89,5.67A6.79,6.79,0,0,1,499.7,107l6.92,10.78h-7.31l-8.55-13.16v13.16h-6ZM499,98a4.07,4.07,0,0,0-1.18-2.87,5.62,5.62,0,0,0-3.7-1.18h-3.36v8.22h2.31v0h2A4.09,4.09,0,0,0,499,98Z"/><path class="cls-1" d="M509.52,88h6v29.77h-6Z"/><path class="cls-1" d="M519.54,108.84V88H530a10.46,10.46,0,0,1,10.47,10.44,9.84,9.84,0,0,1-3.08,7.35,10.15,10.15,0,0,1-7.39,3h-4.47v8.94h-6ZM530,93.94h-4.47v9H530a4.5,4.5,0,0,0,0-9Z"/><path class="cls-1" d="M289.34,77.06v50.17h-4.62V116.47c-3.26,7-10.09,11.15-18.93,11.15-12.79,0-21-7.21-21-21.25V77.06h4.81V106c0,11.34,6.05,17.3,16.53,17.3,11.35,0,18.36-7.59,18.36-19.51V77.06Z"/><path class="cls-1" d="M331.24,76.67v4.71c-.38,0-.77-.1-1.15-.1-11.15,0-17.78,7.41-17.78,19.81v26.14H307.5V77.06h4.61V88C315.19,80.71,321.82,76.67,331.24,76.67Z"/><path class="cls-1" d="M378.44,116.27l2.79,3.18c-4.43,5.38-11.25,8.17-18.94,8.17-15.19,0-26-10.58-26-25.48s10.19-25.47,24.41-25.47c13.36,0,22.88,10,23.55,23.36l-42.39,8.27c2.4,9.22,10.19,15,20.48,15C368.83,123.29,374.59,121,378.44,116.27Zm-37.39-14.51a29.8,29.8,0,0,0,.19,3l38.26-7.5C378.15,88.3,371,80.9,360.75,80.9,349.22,80.9,341.05,89.55,341.05,101.76Z"/><path class="cls-1" d="M418.52,94.07l-15.09,15.48v17.68h-4.91V60h4.91V103.2l42-43.25h6L421.78,90.51l31.63,36.72h-6Z"/><path class="cls-1" d="M195.76,89.37H233v4.21H195.76v25h40.08v4.29H191V60.31h44.85v4.3H195.76Z"/><path class="cls-1" d="M210.36,141.08h-9V164h-1.18V141.08h-9V140h19.16Z"/><path class="cls-1" d="M235.7,162.91V164H219.85V140H235.4v1.08H221v10.1h12.57v1.08H221v10.65Z"/><path class="cls-1" d="M244.08,151.82a12.61,12.61,0,0,1,.76-4.29,12.21,12.21,0,0,1,2.21-3.83,11.28,11.28,0,0,1,3.57-2.77,10.51,10.51,0,0,1,4.81-1.07,9.77,9.77,0,0,1,5.46,1.47,9.07,9.07,0,0,1,3.33,3.77l-1,.47a8.71,8.71,0,0,0-1.57-2.16,8.19,8.19,0,0,0-1.94-1.42,8.75,8.75,0,0,0-2.16-.78,11.33,11.33,0,0,0-2.23-.23,9.27,9.27,0,0,0-4.28,1,9.9,9.9,0,0,0-3.16,2.52,11,11,0,0,0-1.94,3.51,12.35,12.35,0,0,0-.66,3.95,11.67,11.67,0,0,0,.78,4.23,11.5,11.5,0,0,0,2.14,3.56,10.47,10.47,0,0,0,3.23,2.45,8.91,8.91,0,0,0,4,.91,10,10,0,0,0,2.33-.28,10.09,10.09,0,0,0,2.3-.88,9.27,9.27,0,0,0,2.06-1.5,8.54,8.54,0,0,0,1.62-2.2l1.05.4a7.87,7.87,0,0,1-1.66,2.4,10.2,10.2,0,0,1-2.33,1.76,11.41,11.41,0,0,1-2.72,1.07,12,12,0,0,1-2.79.35,9.51,9.51,0,0,1-4.51-1.08,12,12,0,0,1-3.53-2.82,13,13,0,0,1-2.31-4A12.55,12.55,0,0,1,244.08,151.82Z"/><path class="cls-1" d="M293.14,140v24H292V152.26H276V164h-1.18V140H276v11.18H292V140Z"/><path class="cls-1" d="M333.58,143.55a7.51,7.51,0,0,0-2.91-2.05,10.7,10.7,0,0,0-3.71-.59c-2.55,0-4.39.49-5.54,1.45a4.84,4.84,0,0,0-1.73,3.89,4.34,4.34,0,0,0,.43,2,3.7,3.7,0,0,0,1.3,1.41,8.25,8.25,0,0,0,2.26,1c.92.26,2,.52,3.31.79s2.49.57,3.55.88a10.55,10.55,0,0,1,2.7,1.2,5.15,5.15,0,0,1,1.73,1.81,5.43,5.43,0,0,1,.6,2.67,5.71,5.71,0,0,1-.59,2.67,5.28,5.28,0,0,1-1.7,1.92,8.06,8.06,0,0,1-2.69,1.17,14.53,14.53,0,0,1-3.5.39,14.09,14.09,0,0,1-5.17-.9,13,13,0,0,1-4.25-2.75l.71-.85a11.16,11.16,0,0,0,3.85,2.6,12.82,12.82,0,0,0,4.9.88,9.9,9.9,0,0,0,5.32-1.23,4.16,4.16,0,0,0,1.94-3.77,4.71,4.71,0,0,0-.47-2.18,4.25,4.25,0,0,0-1.44-1.52,10.26,10.26,0,0,0-2.43-1.08c-1-.3-2.14-.59-3.46-.86s-2.47-.55-3.47-.84a9.73,9.73,0,0,1-2.53-1.12,4.49,4.49,0,0,1-1.56-1.66,5.15,5.15,0,0,1-.52-2.46,6.22,6.22,0,0,1,.61-2.82,5.58,5.58,0,0,1,1.7-2.06,7.82,7.82,0,0,1,2.66-1.27,12.69,12.69,0,0,1,3.44-.44,11.35,11.35,0,0,1,4.09.67,9.18,9.18,0,0,1,3.21,2.17Z"/><path class="cls-1" d="M355.2,164.16a9.9,9.9,0,0,1-4.56-1,11.81,11.81,0,0,1-3.55-2.74,12.18,12.18,0,0,1-2.29-3.88A13,13,0,0,1,344,152a12.31,12.31,0,0,1,.86-4.59,12.79,12.79,0,0,1,2.36-3.89,11.4,11.4,0,0,1,3.55-2.68,9.91,9.91,0,0,1,4.44-1,9.76,9.76,0,0,1,4.56,1.06,11.49,11.49,0,0,1,3.53,2.79,12.9,12.9,0,0,1,2.28,3.9,12.73,12.73,0,0,1-2.41,12.91,11.69,11.69,0,0,1-3.55,2.67A10,10,0,0,1,355.2,164.16Zm-10-12.17a12,12,0,0,0,.74,4.16,11.55,11.55,0,0,0,2.08,3.53,10.27,10.27,0,0,0,3.17,2.45,9,9,0,0,0,4,.91,8.77,8.77,0,0,0,4.11-1,10.36,10.36,0,0,0,3.16-2.52,11.41,11.41,0,0,0,2-3.55,11.75,11.75,0,0,0,.71-4,11.83,11.83,0,0,0-2.85-7.68,9.9,9.9,0,0,0-3.18-2.45,8.81,8.81,0,0,0-4-.92,8.59,8.59,0,0,0-4.1,1,10.48,10.48,0,0,0-3.16,2.51,11.82,11.82,0,0,0-2.77,7.57Z"/><path class="cls-1" d="M376.83,164V140H378v22.91h14.7V164Z"/><path class="cls-1" d="M410.11,163a8.62,8.62,0,0,0,4.27-1,7.42,7.42,0,0,0,2.69-2.52,10.58,10.58,0,0,0,1.38-3.53,19.89,19.89,0,0,0,.41-4V140H420v12a20.18,20.18,0,0,1-.51,4.59,11.11,11.11,0,0,1-1.67,3.87,8.64,8.64,0,0,1-3,2.67,9.87,9.87,0,0,1-4.65,1,9.76,9.76,0,0,1-4.75-1,8.68,8.68,0,0,1-3.06-2.76,11.24,11.24,0,0,1-1.63-3.88,19.94,19.94,0,0,1-.49-4.44V140h1.18v12a20.28,20.28,0,0,0,.4,4.07,10,10,0,0,0,1.42,3.51,7.76,7.76,0,0,0,2.69,2.49A8.46,8.46,0,0,0,410.11,163Z"/><path class="cls-1" d="M448.29,141.08h-9V164h-1.18V141.08h-9V140h19.16Z"/><path class="cls-1" d="M457.78,164V140H459v24Z"/><path class="cls-1" d="M480.62,164.16a9.87,9.87,0,0,1-4.56-1,11.69,11.69,0,0,1-3.55-2.74,12.2,12.2,0,0,1-2.3-3.88,13,13,0,0,1-.81-4.5,12.51,12.51,0,0,1,.86-4.59,13,13,0,0,1,2.37-3.89,11.29,11.29,0,0,1,3.55-2.68,9.91,9.91,0,0,1,4.44-1,9.76,9.76,0,0,1,4.56,1.06,11.61,11.61,0,0,1,3.53,2.79,12.9,12.9,0,0,1,2.28,3.9,12.63,12.63,0,0,1,.81,4.41,12.77,12.77,0,0,1-3.22,8.5,11.81,11.81,0,0,1-3.55,2.67A10,10,0,0,1,480.62,164.16Zm-10-12.17a11.74,11.74,0,0,0,.75,4.16,11.35,11.35,0,0,0,2.08,3.53,10,10,0,0,0,3.17,2.45,8.94,8.94,0,0,0,4,.91,8.7,8.7,0,0,0,4.1-1,10.36,10.36,0,0,0,3.16-2.52,11.24,11.24,0,0,0,2-3.55,12,12,0,0,0,.71-4,11.48,11.48,0,0,0-.76-4.15,11.68,11.68,0,0,0-2.1-3.53,9.86,9.86,0,0,0-3.17-2.45,8.81,8.81,0,0,0-4-.92,8.66,8.66,0,0,0-4.11,1,10.6,10.6,0,0,0-3.16,2.51,12,12,0,0,0-2.77,7.57Z"/><path class="cls-1" d="M503.42,142.23V164h-1.18V140h.88l17.64,22.13V140h1.18v24h-1.15Z"/><path class="cls-1" d="M548,143.55a7.51,7.51,0,0,0-2.91-2.05,10.7,10.7,0,0,0-3.71-.59c-2.55,0-4.39.49-5.54,1.45a4.84,4.84,0,0,0-1.73,3.89,4.34,4.34,0,0,0,.43,2,3.7,3.7,0,0,0,1.3,1.41,8.25,8.25,0,0,0,2.26,1c.92.26,2,.52,3.31.79s2.49.57,3.55.88a10.55,10.55,0,0,1,2.7,1.2,5.12,5.12,0,0,1,1.72,1.81A5.33,5.33,0,0,1,550,158a5.71,5.71,0,0,1-.59,2.67,5.28,5.28,0,0,1-1.7,1.92,8.06,8.06,0,0,1-2.69,1.17,14.53,14.53,0,0,1-3.5.39,14.09,14.09,0,0,1-5.17-.9,13,13,0,0,1-4.25-2.75l.71-.85a11.16,11.16,0,0,0,3.85,2.6,12.82,12.82,0,0,0,4.9.88,9.9,9.9,0,0,0,5.32-1.23,4.16,4.16,0,0,0,1.94-3.77,4.71,4.71,0,0,0-.47-2.18,4.25,4.25,0,0,0-1.44-1.52,10.26,10.26,0,0,0-2.43-1.08c-1-.3-2.14-.59-3.46-.86s-2.47-.55-3.47-.84a9.73,9.73,0,0,1-2.53-1.12,4.49,4.49,0,0,1-1.56-1.66,5.15,5.15,0,0,1-.52-2.46,6.22,6.22,0,0,1,.61-2.82,5.58,5.58,0,0,1,1.7-2.06,7.82,7.82,0,0,1,2.66-1.27,12.69,12.69,0,0,1,3.44-.44,11.35,11.35,0,0,1,4.09.67,9.18,9.18,0,0,1,3.21,2.17Z"/><line class="cls-2" x1="456.89" y1="77.79" x2="542.84" y2="77.79"/><line class="cls-2" x1="458.93" y1="124.73" x2="544.89" y2="124.73"/><path class="cls-1" d="M150.78,25C130.55,4.94,103.37-2.75,76.2,3.92c-29,7.11-53,28.91-63.45,57.36,1.33.35,2.69.6,4,.89C26.86,35.25,49.64,14.63,77.17,7.89c25.76-6.32,51.54,1,70.73,20,24.11,23.91,29.57,64.17,12.69,93.63S106.23,166.66,73.41,158c-32.14-8.52-56.6-39.53-57.67-72.7a137.08,137.08,0,0,0,28.65-2.2c-3,18.36,8,35,31,46.82,7.87,4.06,14.86,6.53,21.36,7.56.18,0,17.8,2.56,20.1-5.85,1.15-4.2-3-7.86-6.07-10.29l.86.3.7.25c7,2.43,15.74,5.47,23.44,2.78,4.08-1.43,5-3.84,5.13-5.61.24-5-6.57-10.7-11.9-14.34,10.36,1.17,20,1,23.43-2.71,1.18-1.28,2.3-3.55.92-7.11-1.72-4.45-5.87-7.6-11.22-9.85,3.77-.81,6.76-2.15,8.36-4.27,1.27-1.67,2.31-4.57.18-8.94-.69-2-5.72-11.55-38.86-13.5a4.71,4.71,0,0,1,.32,1.74,10.49,10.49,0,0,1-.33,2.35c31.55,1.9,35,10.65,35,10.67a1.77,1.77,0,0,0,.15.42c1.56,3.12.61,4.38.29,4.8-1.94,2.56-7.88,3.57-15.27,3.66-9.36-2-19.77-2.52-27.11-2.89-1.67-.09-3.12-.16-4.28-.24a2,2,0,0,0-.53,4c2.66.5,17.92,3.3,31.2,3.17,8.66,1.86,16.24,5,18.3,10.31.74,1.92.14,2.57-.12,2.85-3.41,3.69-18.58,2-32.06-.44A101.22,101.22,0,0,0,96.55,94a2,2,0,0,0-.85,4c.21.07,9.53,2.65,20.64,4.73q2.63,1,5,2.07c4.58,2.13,15.64,10.24,15.45,14,0,.76-.84,1.42-2.39,2-6.36,2.22-14.34-.55-20.75-2.79l-.7-.24a149.33,149.33,0,0,1-22.56-9.69,2,2,0,1,0-2,3.59c6,3.24,12.22,6.78,17.72,11.27.33.27.73.58,1.17.91,2,1.53,6.09,4.7,5.55,6.7-.92,3.35-10.59,3.65-15.52,2.88-6.07-1-12.65-3.3-20.13-7.16-15.13-7.8-32.41-21.57-28.77-42.85.07-.4.14-.8.22-1.2A137.09,137.09,0,0,0,86.47,67.88c7.19-4,16.15-11.71,17.77-20.11a14.52,14.52,0,0,0-13.3-17.06,24.08,24.08,0,0,0-17.23,6C63,46.21,49.79,60.89,45.31,78.65A133.09,133.09,0,0,1,13.75,81.1a2.05,2.05,0,0,0-2.13,2c.07,35.75,26.18,69.62,60.74,78.77A76.31,76.31,0,0,0,92,164.43c28.86,0,57.7-15.62,72.16-40.86C181.9,92.54,176.16,50.17,150.78,25ZM76.42,39.83c5.25-4.64,16.09-8,21.41-1.47A10.11,10.11,0,0,1,100.22,47C99,53.57,91.4,60.43,84.48,64.31A133.67,133.67,0,0,1,49.81,77.68C54.5,61.8,66.57,48.52,76.42,39.83Z"/><path class="cls-1" d="M13.21,73.07a7.15,7.15,0,1,1,7.15-7.15A7.15,7.15,0,0,1,13.21,73.07Zm0-10.2a3.06,3.06,0,1,0,3.06,3.05A3.06,3.06,0,0,0,13.21,62.87Z"/><path class="cls-1" d="M109,67.18A7.15,7.15,0,1,1,116.12,60,7.15,7.15,0,0,1,109,67.18ZM109,57A3.06,3.06,0,1,0,112,60,3.06,3.06,0,0,0,109,57Z"/></svg>