<?xml version="1.0" encoding="utf-8"?>
<!-- Generator: Adobe Illustrator 24.0.0, SVG Export Plug-In . SVG Version: 6.00 Build 0)  -->
<svg version="1.1" id="Capa_1" xmlns="http://www.w3.org/2000/svg" xmlns:xlink="http://www.w3.org/1999/xlink" x="0px" y="0px"
	 viewBox="0 0 480 480" style="enable-background:new 0 0 480 480;" xml:space="preserve">
<style type="text/css">
	.st0{fill:#FFFFFF;}
</style>
<path class="st0" d="M240,0C107.5,0,0,107.5,0,240s107.5,240,240,240s240-107.5,240-240C479.9,107.5,372.5,0.1,240,0z M425.9,115.1
	l-16.6,70.7L321.6,215L248,156.2V69.4l84-33.6C370,53,402.5,80.5,425.9,115.1z M427.2,362.8l-79.3,12.5l-43.2-57.1l22-88l86.7-28.9
	l49.6,59.6C459.6,297.3,447.3,332.3,427.2,362.8z M132.5,375.3l-79.7-12.6C32.7,332.3,20.4,297.3,17,260.9l49.6-59.6l86.7,28.9
	l22,88L132.5,375.3z M16.1,237c0.4-35.7,9.4-70.8,26.2-102.2l13,55.2L16.1,237z M190.2,312L169,227l71-56.8l71,56.8l-21.2,85H190.2z
	 M424.7,190l13-55.2c16.8,31.5,25.8,66.5,26.2,102.2L424.7,190z M310.2,27.3L240,55.4l-70.6-27.9C215.1,12.2,264.5,12.2,310.2,27.3z
	 M147.6,36L232,69.4v86.7L158.4,215l-87.6-29.2l-16.6-70.7C77.4,80.6,109.8,53.2,147.6,36z M66.2,381.1l65,10.3l39.3,61.6
	C129.6,439.5,93.3,414.5,66.2,381.1z M193.5,459.1l-47.7-74.7L188,328h104l42.9,56.6l-41.6,72.9
	C260.6,465.6,226.4,466.1,193.5,459.1L193.5,459.1z M315.5,450.9l34.1-59.7l64.3-10.1C388,412.9,354,437,315.5,450.9z"/>
</svg>
