<svg id="Capa_1" data-name="Capa 1" xmlns="http://www.w3.org/2000/svg" viewBox="0 0 600 200.68"><defs><style>.cls-1{fill:#fff;}</style></defs><title>LOGOS</title><path class="cls-1" d="M290.35,95.86v46.46h-4.28v-10c-3,6.5-9.34,10.33-17.53,10.33-11.84,0-19.4-6.68-19.4-19.67V95.86h4.45v26.79c0,10.5,5.6,16,15.3,16,10.51,0,17-7,17-18.07V95.86Z"/><path class="cls-1" d="M329.15,95.5v4.36c-.36,0-.71-.08-1.07-.08-10.32,0-16.47,6.85-16.47,18.33v24.21h-4.45V95.86h4.28V106C314.29,99.24,320.43,95.5,329.15,95.5Z"/><path class="cls-1" d="M372.85,132.17l2.58,2.94c-4.09,5-10.41,7.57-17.53,7.57-14.07,0-24-9.79-24-23.59s9.43-23.59,22.6-23.59c12.38,0,21.19,9.26,21.81,21.63L339,124.79c2.22,8.54,9.43,13.88,19,13.88C364,138.67,369.29,136.54,372.85,132.17Zm-34.62-13.44c0,.89.09,1.87.18,2.76l35.42-6.94c-1.25-8.28-7.83-15.13-17.36-15.13C345.79,99.42,338.23,107.43,338.23,118.73Z"/><path class="cls-1" d="M410,111.61l-14,14.33v16.38h-4.54V80H396v40.06L434.89,80h5.51L413,108.32l29.28,34h-5.52Z"/><path class="cls-1" d="M203.69,107.26h34.53v3.9H203.69v23.18h37.12v4H199.28v-58h41.53v4H203.69Z"/><path class="cls-1" d="M580.76,97.91H446.44c-1.28,0-2.32-.61-2.32-1.37s1-1.37,2.32-1.37H580.76c1.28,0,2.32.61,2.32,1.37S582,97.91,580.76,97.91Z"/><path class="cls-1" d="M584,141.38H449.63c-1.28,0-2.31-.61-2.31-1.37s1-1.38,2.31-1.38H584c1.28,0,2.32.62,2.32,1.38S585.23,141.38,584,141.38Z"/><path class="cls-1" d="M162,47.65C143.31,29.08,118.14,22,93,28.13,66.11,34.72,43.91,54.91,34.23,81.25c1.23.32,2.49.56,3.73.83,9.34-24.94,30.43-44,55.92-50.27,23.85-5.85,47.72.91,65.5,18.53,22.32,22.14,27.38,59.42,11.75,86.7s-50.34,41.79-80.73,33.74C60.64,162.89,38,134.17,37,103.46a127.08,127.08,0,0,0,26.53-2c-2.75,17,7.43,32.39,28.69,43.35,7.29,3.76,13.76,6,19.78,7,.17,0,16.49,2.37,18.62-5.41,1.06-3.89-2.77-7.29-5.63-9.53l.8.28.65.22c6.49,2.26,14.57,5.07,21.7,2.58,3.78-1.32,4.67-3.55,4.75-5.19.23-4.6-6.08-9.91-11-13.28,9.59,1.08,18.5.94,21.69-2.51,1.09-1.19,2.13-3.29.86-6.58-1.6-4.13-5.45-7-10.39-9.12,3.48-.75,6.26-2,7.74-4,1.17-1.54,2.14-4.23.16-8.28-.64-1.88-5.3-10.69-36-12.5a4.25,4.25,0,0,1,.29,1.61,10.23,10.23,0,0,1-.3,2.18c29.21,1.76,32.39,9.87,32.4,9.88a1.74,1.74,0,0,0,.14.38c1.44,2.89.56,4.06.27,4.45-1.8,2.37-7.3,3.31-14.14,3.4-8.67-1.86-18.31-2.34-25.1-2.69-1.55-.07-2.9-.14-4-.22a1.89,1.89,0,0,0-.49,3.75c2.46.47,16.59,3.06,28.89,2.94,8,1.72,15,4.6,16.94,9.54.69,1.79.13,2.39-.1,2.65-3.16,3.41-17.21,1.89-29.69-.41a94.06,94.06,0,0,0-19.27-4.38,1.89,1.89,0,0,0-.79,3.69c.19,0,8.82,2.45,19.11,4.37q2.43.89,4.65,1.92c4.24,2,14.49,9.48,14.31,13,0,.69-.78,1.3-2.22,1.81-5.88,2.06-13.27-.52-19.21-2.58l-.64-.23a137.76,137.76,0,0,1-20.89-9,1.9,1.9,0,1,0-1.81,3.33,105.06,105.06,0,0,1,16.41,10.43c.3.25.67.53,1.08.84,1.83,1.42,5.64,4.35,5.13,6.2-.85,3.11-9.8,3.39-14.37,2.67C107,147.15,100.88,145,94,141.41c-14-7.23-30-20-26.65-39.68.07-.37.13-.75.21-1.12a126.61,126.61,0,0,0,35-13.25c6.65-3.73,15-10.84,16.45-18.62A13.44,13.44,0,0,0,106.64,53a22.26,22.26,0,0,0-16,5.6c-9.91,8.75-22.15,22.34-26.3,38.78A122.36,122.36,0,0,1,35.16,99.6a1.88,1.88,0,0,0-1.4.53,1.91,1.91,0,0,0-.58,1.37c.07,33.1,24.25,64.46,56.25,72.94a71.2,71.2,0,0,0,18.17,2.33c26.72,0,53.42-14.47,66.81-37.84C190.86,110.2,185.55,71,162,47.65ZM93.19,61.39C98.05,57.1,108.09,54,113,60a9.34,9.34,0,0,1,2.22,8c-1.17,6.09-8.17,12.43-14.58,16a123.19,123.19,0,0,1-32.1,12.38C72.89,81.73,84.06,69.44,93.19,61.39Z"/><path class="cls-1" d="M34.66,92.17a6.62,6.62,0,1,1,6.62-6.62A6.63,6.63,0,0,1,34.66,92.17Zm0-9.45a2.83,2.83,0,1,0,2.83,2.83A2.83,2.83,0,0,0,34.66,82.72Z"/><path class="cls-1" d="M123.34,86.72A6.62,6.62,0,1,1,130,80.1,6.63,6.63,0,0,1,123.34,86.72Zm0-9.45a2.83,2.83,0,1,0,2.83,2.83A2.84,2.84,0,0,0,123.34,77.27Z"/><path class="cls-1" d="M455.83,121.82a11.4,11.4,0,0,1-2.64-1.35,9.9,9.9,0,0,1-2.5-2.43,6.21,6.21,0,0,1-1.11-3.77,8.27,8.27,0,0,1,16.53,0H460.6a2.75,2.75,0,0,0-4.7-2,2.7,2.7,0,0,0-.8,2,2.48,2.48,0,0,0,1.19,2.23,7.7,7.7,0,0,0,1.8.93c.2.07.72.23,1.58.48a11.75,11.75,0,0,1,2.72,1.24,9.7,9.7,0,0,1,2.58,2.36,6,6,0,0,1,1.14,3.78,8.27,8.27,0,1,1-16.53,0h5.52a2.74,2.74,0,0,0,4.69,1.95,2.59,2.59,0,0,0,.81-1.95,2.13,2.13,0,0,0-1.39-2.25l-1.89-.7Z"/><path class="cls-1" d="M470.12,125.29V106h9.64a9.64,9.64,0,1,1,0,19.28h-4.12v8.28h-5.52Zm9.64-5.5a4.13,4.13,0,0,0,4.14-4.14,4.17,4.17,0,0,0-4.14-4.14h-4.12v8.28Z"/><path class="cls-1" d="M514.71,110.06a13.73,13.73,0,1,1-9.73-4A13.26,13.26,0,0,1,514.71,110.06ZM499.14,114a8.21,8.21,0,1,0,5.84-2.44A7.91,7.91,0,0,0,499.14,114Z"/><path class="cls-1" d="M521.5,125.29V106h9.64a9.63,9.63,0,0,1,7.91,15.17,9.51,9.51,0,0,1-4.47,3.48l6.22,8.91h-6.74l-7-10.09v10.09H521.5Zm9.64-5.5a4.12,4.12,0,0,0,2.92-7.05,3.94,3.94,0,0,0-2.92-1.23H527v8.28Z"/><path class="cls-1" d="M555.22,106h6.89v5.5h-6.89v22.06H549.7V111.51h-6.9V106h12.42Z"/><path class="cls-1" d="M570.37,121.82a11.55,11.55,0,0,1-2.63-1.35,9.94,9.94,0,0,1-2.51-2.43,6.21,6.21,0,0,1-1.11-3.77,8.27,8.27,0,0,1,16.54,0h-5.51a2.77,2.77,0,0,0-2.75-2.76,2.63,2.63,0,0,0-1.95.81,2.66,2.66,0,0,0-.8,2,2.49,2.49,0,0,0,1.18,2.23,7.71,7.71,0,0,0,1.81.93c.19.07.72.23,1.58.48a11.75,11.75,0,0,1,2.72,1.24,9.66,9.66,0,0,1,2.57,2.36,6,6,0,0,1,1.15,3.78,8.27,8.27,0,0,1-16.54,0h5.53a2.75,2.75,0,0,0,2.75,2.76,2.77,2.77,0,0,0,2.75-2.76,2.13,2.13,0,0,0-1.39-2.25l-1.89-.7Z"/></svg>