<?xml version="1.0" encoding="utf-8"?>
<!-- Generator: Adobe Illustrator 24.0.0, SVG Export Plug-In . SVG Version: 6.00 Build 0)  -->
<svg version="1.1" xmlns="http://www.w3.org/2000/svg" xmlns:xlink="http://www.w3.org/1999/xlink" x="0px" y="0px"
	 viewBox="0 0 388.7 432.9" style="enable-background:new 0 0 388.7 432.9;" xml:space="preserve">
<style type="text/css">
	.st0{fill:#FFFFFF;}
	.st1{fill:#FC943F;}
	.st2{fill:#4FC9B8;}
	.st3{fill:#9B9B9B;}
	.st4{opacity:0.5;fill:#C1C1C1;}
	.st5{fill:#C1C1C1;}
	.st6{fill:#303030;}
	.st7{fill:#D6E7F2;}
	.st8{opacity:0.5;fill:#95B3C6;}
	.st9{opacity:0.4;fill:#FFFFFF;}
	.st10{clip-path:url(#SVGID_2_);fill:#95B3C6;}
	.st11{opacity:0.4;clip-path:url(#SVGID_2_);fill:#C1C1C1;}
	.st12{clip-path:url(#SVGID_2_);fill:#C1272D;}
	.st13{clip-path:url(#SVGID_2_);fill:#F29A86;}
	.st14{clip-path:url(#SVGID_2_);fill:#FFAF99;}
	.st15{clip-path:url(#SVGID_2_);fill:#0E263F;}
	.st16{clip-path:url(#SVGID_2_);}
	.st17{fill:#0E263F;}
	.st18{clip-path:url(#SVGID_2_);fill:#FFFFFF;}
	.st19{clip-path:url(#SVGID_2_);fill:none;stroke:#FFFFFF;stroke-miterlimit:10;}
	.st20{clip-path:url(#SVGID_2_);fill:url(#SVGID_3_);}
	.st21{clip-path:url(#SVGID_2_);fill:#153556;}
	.st22{fill:none;}
	.st23{opacity:0.5;fill:#153556;}
	.st24{clip-path:url(#SVGID_2_);fill:#3F3F3F;}
	.st25{clip-path:url(#SVGID_2_);fill:#232323;}
	.st26{clip-path:url(#SVGID_2_);fill:#D6E7F2;}
	
		.st27{clip-path:url(#SVGID_2_);fill:none;stroke:#153556;stroke-width:0.5;stroke-linecap:round;stroke-linejoin:round;stroke-miterlimit:10;}
	.st28{opacity:0.5;fill:none;stroke:#D6E7F2;stroke-miterlimit:10;}
	.st29{fill:none;stroke:#C7DAEA;stroke-miterlimit:10;}
	.st30{fill:#C7DAEA;}
	.st31{clip-path:url(#SVGID_5_);fill:#FFFFFF;}
	.st32{fill:#FFFFFF;stroke:#FFFFFF;stroke-linecap:round;stroke-linejoin:round;stroke-miterlimit:10;}
	.st33{fill:#E20613;}
	.st34{fill:#C1272D;}
	.st35{fill:#FF0000;}
	.st36{fill:#868686;}
	.st37{fill:#B3B3B3;}
	.st38{fill:#E46239;}
	.st39{fill:#F9D528;}
	.st40{fill:#EEE67B;}
</style>
<g id="BACKGROUND">
	<g>
		<path class="st0" d="M268.8,163.9c-64.5,0-116.7,52.2-116.7,116.7c0,64.5,52.2,116.7,116.7,116.7c64.4,0,116.7-52.2,116.7-116.7
			C385.5,216.2,333.2,163.9,268.8,163.9z"/>
		<path class="st0" d="M122.9,199.4c0,33.9-27.5,61.4-61.4,61.4c-33.9,0-61.4-27.5-61.4-61.4c0-33.9,27.5-61.4,61.4-61.4
			C95.4,138.1,122.9,165.6,122.9,199.4z"/>
		<path class="st0" d="M332.7,48.4c0,23-18.7,41.7-41.7,41.7c-23,0-41.7-18.7-41.7-41.7c0-23,18.7-41.7,41.7-41.7
			C314,6.8,332.7,25.4,332.7,48.4z"/>
	</g>
</g>
<g id="OBJECTS">
	<g>
		<g>
			<path class="st0" d="M339.8,170c-10.2,19.6-34.4,27.2-54,16.9c-19.6-10.2-27.2-34.4-16.9-54c10.2-19.6,34.4-27.2,54-16.9
				C342.4,126.3,350,150.5,339.8,170z"/>
			
				<rect x="319.3" y="111.6" transform="matrix(0.4631 -0.8863 0.8863 0.4631 70.471 348.4369)" class="st0" width="7" height="8.9"/>
			<g>
				<path class="st0" d="M331.8,116.7c-0.5,1-1.7,1.4-2.7,0.8l-11.1-5.8c-1-0.5-1.4-1.7-0.8-2.7l1.4-2.6c0.5-1,1.7-1.4,2.7-0.8
					l11.1,5.8c1,0.5,1.4,1.7,0.8,2.7L331.8,116.7z"/>
			</g>
			
				<rect x="341.5" y="136.5" transform="matrix(0.9541 -0.2995 0.2995 0.9541 -26.0993 109.4845)" class="st0" width="5.3" height="6.8"/>
			<g>
				<path class="st0" d="M349.1,144.9c-1,0.3-2.2-0.3-2.5-1.3l-2.6-8.2c-0.3-1,0.3-2.2,1.3-2.5l1.3-0.4c1-0.3,2.2,0.3,2.5,1.3
					l2.6,8.2c0.3,1-0.3,2.2-1.3,2.5L349.1,144.9z"/>
			</g>
			<path class="st1" d="M332.3,166.1c-8.1,15.4-27.1,21.4-42.5,13.3c-15.4-8.1-21.4-27.1-13.3-42.5c8.1-15.4,27.1-21.4,42.5-13.3
				C334.3,131.6,340.3,150.7,332.3,166.1z"/>
			<path class="st0" d="M309.3,154.1c-1.5,2.8-4.9,3.9-7.7,2.4c-2.8-1.5-3.9-4.9-2.4-7.7c1.5-2.8,4.9-3.9,7.7-2.4
				C309.7,147.9,310.8,151.4,309.3,154.1z"/>
			<g>
				<path class="st0" d="M304.1,151.9c-0.2-0.1-0.3-0.4-0.2-0.6l11.9-22.9c0.1-0.2,0.4-0.3,0.6-0.2c0.2,0.1,0.3,0.4,0.2,0.6
					l-11.9,22.9C304.6,152,304.3,152.1,304.1,151.9z"/>
			</g>
			<g>
				<path class="st0" d="M317.1,127c-0.2-0.1-0.3-0.4-0.2-0.6l0.7-1.4c0.1-0.2,0.4-0.3,0.6-0.2c0.2,0.1,0.3,0.4,0.2,0.6l-0.7,1.4
					C317.6,127,317.3,127.1,317.1,127z"/>
			</g>
			<g>
				<path class="st0" d="M290.4,178.1c-0.2-0.1-0.3-0.4-0.2-0.6l0.7-1.4c0.1-0.2,0.4-0.3,0.6-0.2c0.2,0.1,0.3,0.4,0.2,0.6l-0.7,1.4
					C290.9,178.1,290.7,178.2,290.4,178.1z"/>
			</g>
			<g>
				<path class="st0" d="M312.7,125.2c-0.2-0.1-0.4-0.3-0.3-0.6l0.5-1.5c0.1-0.3,0.3-0.4,0.6-0.3c0.3,0.1,0.4,0.3,0.3,0.6l-0.5,1.5
					C313.2,125.1,312.9,125.2,312.7,125.2z"/>
			</g>
			<g>
				<path class="st0" d="M295.3,180.1c-0.3-0.1-0.4-0.3-0.3-0.6l0.5-1.5c0.1-0.3,0.3-0.4,0.6-0.3c0.2,0.1,0.4,0.3,0.3,0.6l-0.5,1.5
					C295.8,180,295.5,180.2,295.3,180.1z"/>
			</g>
			<g>
				<path class="st0" d="M308,124.1c-0.3,0-0.4-0.3-0.4-0.5l0.2-1.5c0-0.3,0.3-0.4,0.5-0.4c0.3,0,0.4,0.3,0.4,0.5l-0.2,1.5
					C308.5,124,308.2,124.2,308,124.1z"/>
			</g>
			<g>
				<path class="st0" d="M300.4,181.2c-0.3,0-0.4-0.3-0.4-0.5l0.2-1.5c0-0.3,0.3-0.4,0.5-0.4c0.3,0,0.4,0.3,0.4,0.5l-0.2,1.5
					C300.9,181.1,300.6,181.3,300.4,181.2z"/>
			</g>
			<g>
				<path class="st0" d="M303.2,123.9c-0.3,0-0.5-0.2-0.5-0.5l-0.1-1.5c0-0.3,0.2-0.5,0.5-0.5c0.3,0,0.5,0.2,0.5,0.5l0.1,1.5
					C303.6,123.7,303.4,123.9,303.2,123.9z"/>
			</g>
			<g>
				<path class="st0" d="M305.6,181.5c-0.3,0-0.5-0.2-0.5-0.5l-0.1-1.5c0-0.3,0.2-0.5,0.5-0.5c0.3,0,0.5,0.2,0.5,0.5l0.1,1.5
					C306.1,181.3,305.9,181.5,305.6,181.5z"/>
			</g>
			<g>
				<path class="st0" d="M298.4,124.5c-0.3,0.1-0.5-0.1-0.6-0.4l-0.3-1.5c-0.1-0.3,0.1-0.5,0.4-0.6c0.3-0.1,0.5,0.1,0.6,0.4l0.3,1.5
					C298.8,124.2,298.7,124.5,298.4,124.5z"/>
			</g>
			<g>
				<path class="st0" d="M310.8,180.8c-0.3,0.1-0.5-0.1-0.6-0.4l-0.3-1.5c-0.1-0.3,0.1-0.5,0.4-0.6c0.3-0.1,0.5,0.1,0.6,0.4l0.3,1.5
					C311.2,180.5,311.1,180.8,310.8,180.8z"/>
			</g>
			<g>
				<path class="st0" d="M293.8,126c-0.2,0.1-0.5,0-0.6-0.3l-0.6-1.4c-0.1-0.2,0-0.5,0.3-0.6c0.2-0.1,0.5,0,0.6,0.3l0.6,1.4
					C294.2,125.6,294.1,125.9,293.8,126z"/>
			</g>
			<g>
				<path class="st0" d="M315.8,179.2c-0.2,0.1-0.5,0-0.6-0.3l-0.6-1.4c-0.1-0.2,0-0.5,0.3-0.6c0.2-0.1,0.5,0,0.6,0.3l0.6,1.4
					C316.2,178.9,316.1,179.1,315.8,179.2z"/>
			</g>
			<g>
				<path class="st0" d="M289.6,128.2c-0.2,0.1-0.5,0.1-0.7-0.1l-0.8-1.3c-0.1-0.2-0.1-0.5,0.1-0.7c0.2-0.1,0.5-0.1,0.7,0.1l0.8,1.3
					C289.9,127.7,289.8,128,289.6,128.2z"/>
			</g>
			<g>
				<path class="st0" d="M320.5,176.8c-0.2,0.1-0.5,0.1-0.7-0.1l-0.8-1.3c-0.1-0.2-0.1-0.5,0.1-0.7c0.2-0.1,0.5-0.1,0.7,0.1l0.8,1.3
					C320.8,176.4,320.7,176.7,320.5,176.8z"/>
			</g>
			<g>
				<path class="st0" d="M285.7,131.1c-0.2,0.2-0.5,0.2-0.7,0l-1-1.1c-0.2-0.2-0.2-0.5,0-0.7c0.2-0.2,0.5-0.2,0.7,0l1,1.1
					C286,130.6,285.9,130.9,285.7,131.1z"/>
			</g>
			<g>
				<path class="st0" d="M324.6,173.6c-0.2,0.2-0.5,0.2-0.7,0l-1-1.1c-0.2-0.2-0.2-0.5,0-0.7c0.2-0.2,0.5-0.2,0.7,0l1,1.1
					C324.8,173.2,324.8,173.5,324.6,173.6z"/>
			</g>
			<g>
				<path class="st0" d="M282.5,134.6c-0.2,0.2-0.5,0.2-0.7,0.1l-1.2-0.9c-0.2-0.2-0.2-0.5-0.1-0.7c0.2-0.2,0.5-0.2,0.7-0.1l1.2,0.9
					C282.6,134.1,282.7,134.4,282.5,134.6z"/>
			</g>
			<g>
				<path class="st0" d="M328.2,169.8c-0.2,0.2-0.5,0.2-0.7,0.1l-1.2-0.9c-0.2-0.2-0.3-0.5-0.1-0.7c0.2-0.2,0.5-0.2,0.7-0.1l1.2,0.9
					C328.3,169.3,328.3,169.6,328.2,169.8z"/>
			</g>
			<g>
				<path class="st0" d="M279.9,138.7c-0.1,0.2-0.4,0.3-0.6,0.2l-1.4-0.7c-0.2-0.1-0.3-0.4-0.2-0.6c0.1-0.2,0.4-0.3,0.6-0.2l1.4,0.7
					C279.9,138.2,280,138.4,279.9,138.7z"/>
			</g>
			<g>
				<path class="st0" d="M331,165.4c-0.1,0.2-0.4,0.3-0.6,0.2l-1.4-0.7c-0.2-0.1-0.3-0.4-0.2-0.6c0.1-0.2,0.4-0.3,0.6-0.2l1.4,0.7
					C331,164.8,331.1,165.1,331,165.4z"/>
			</g>
			<g>
				<path class="st0" d="M278.1,143.1c-0.1,0.2-0.3,0.4-0.6,0.3L276,143c-0.3-0.1-0.4-0.3-0.3-0.6c0.1-0.3,0.3-0.4,0.6-0.3l1.5,0.5
					C278,142.6,278.1,142.9,278.1,143.1z"/>
			</g>
			<g>
				<path class="st0" d="M333,160.5c-0.1,0.2-0.3,0.4-0.6,0.3l-1.5-0.5c-0.3-0.1-0.4-0.3-0.3-0.6c0.1-0.3,0.3-0.4,0.6-0.3l1.5,0.5
					C332.9,160,333.1,160.3,333,160.5z"/>
			</g>
			<g>
				<path class="st0" d="M277,147.8c0,0.3-0.3,0.4-0.5,0.4l-1.5-0.2c-0.3,0-0.4-0.3-0.4-0.5c0-0.3,0.3-0.4,0.5-0.4l1.5,0.2
					C276.9,147.3,277.1,147.5,277,147.8z"/>
			</g>
			<g>
				<path class="st0" d="M334.1,155.4c0,0.3-0.3,0.4-0.5,0.4l-1.5-0.2c-0.3,0-0.4-0.3-0.4-0.5c0-0.3,0.3-0.4,0.5-0.4l1.5,0.2
					C334,154.9,334.2,155.1,334.1,155.4z"/>
			</g>
			<g>
				<path class="st0" d="M276.8,152.6c0,0.3-0.2,0.5-0.5,0.5l-1.5,0.1c-0.3,0-0.5-0.2-0.5-0.5c0-0.3,0.2-0.5,0.5-0.5l1.5-0.1
					C276.6,152.1,276.8,152.3,276.8,152.6z"/>
			</g>
			<g>
				<path class="st0" d="M334.4,150.2c0,0.3-0.2,0.5-0.5,0.5l-1.5,0.1c-0.3,0-0.5-0.2-0.5-0.5c0-0.3,0.2-0.5,0.5-0.5l1.5-0.1
					C334.2,149.7,334.4,149.9,334.4,150.2z"/>
			</g>
			<g>
				<path class="st0" d="M277.4,157.4c0.1,0.3-0.1,0.5-0.4,0.6l-1.5,0.3c-0.3,0.1-0.5-0.1-0.6-0.4c-0.1-0.3,0.1-0.5,0.4-0.6l1.5-0.3
					C277.1,156.9,277.4,157.1,277.4,157.4z"/>
			</g>
			<g>
				<path class="st0" d="M333.7,145c0.1,0.3-0.1,0.5-0.4,0.6l-1.5,0.3c-0.3,0.1-0.5-0.1-0.6-0.4c-0.1-0.3,0.1-0.5,0.4-0.6l1.5-0.3
					C333.4,144.6,333.7,144.7,333.7,145z"/>
			</g>
			<g>
				<path class="st0" d="M278.9,162c0.1,0.2,0,0.5-0.3,0.6l-1.4,0.6c-0.2,0.1-0.5,0-0.6-0.3c-0.1-0.2,0-0.5,0.3-0.6l1.4-0.6
					C278.5,161.6,278.8,161.7,278.9,162z"/>
			</g>
			<g>
				<path class="st0" d="M332.1,140c0.1,0.2,0,0.5-0.3,0.6l-1.4,0.6c-0.2,0.1-0.5,0-0.6-0.3c-0.1-0.2,0-0.5,0.3-0.6l1.4-0.6
					C331.8,139.6,332,139.7,332.1,140z"/>
			</g>
			<g>
				<path class="st0" d="M281.1,166.2c0.1,0.2,0.1,0.5-0.1,0.7l-1.3,0.8c-0.2,0.1-0.5,0.1-0.7-0.1c-0.1-0.2-0.1-0.5,0.1-0.7l1.3-0.8
					C280.6,165.9,280.9,166,281.1,166.2z"/>
			</g>
			<g>
				<path class="st0" d="M329.7,135.3c0.1,0.2,0.1,0.5-0.1,0.7l-1.3,0.8c-0.2,0.1-0.5,0.1-0.7-0.1c-0.1-0.2-0.1-0.5,0.1-0.7l1.3-0.8
					C329.3,135,329.6,135.1,329.7,135.3z"/>
			</g>
			<g>
				<path class="st0" d="M284,170c0.2,0.2,0.2,0.5,0,0.7l-1.1,1c-0.2,0.2-0.5,0.2-0.7,0c-0.2-0.2-0.2-0.5,0-0.7l1.1-1
					C283.5,169.8,283.8,169.8,284,170z"/>
			</g>
			<g>
				<path class="st0" d="M326.5,131.2c0.2,0.2,0.2,0.5,0,0.7l-1.1,1c-0.2,0.2-0.5,0.2-0.7,0c-0.2-0.2-0.2-0.5,0-0.7l1.1-1
					C326.1,131,326.4,131,326.5,131.2z"/>
			</g>
			<g>
				<path class="st0" d="M287.5,173.3c0.2,0.2,0.2,0.5,0.1,0.7l-0.9,1.2c-0.2,0.2-0.5,0.2-0.7,0.1c-0.2-0.2-0.2-0.5-0.1-0.7l0.9-1.2
					C287,173.2,287.3,173.1,287.5,173.3z"/>
			</g>
			<g>
				<path class="st0" d="M322.7,127.6c0.2,0.2,0.2,0.5,0.1,0.7l-0.9,1.2c-0.2,0.2-0.5,0.2-0.7,0.1c-0.2-0.2-0.2-0.5-0.1-0.7l0.9-1.2
					C322.2,127.5,322.5,127.5,322.7,127.6z"/>
			</g>
		</g>
	</g>
	<g>
		<g>
			<path class="st2" d="M111.8,408.2c-8-2.1-18.1-7.3-26.8-11.5c-18.2-8.5-35.8-19.4-51.7-31.7c-11.4-8.8-23.1-21.3-28.5-35
				c-2.6-6.6-4.7-17.2,0.1-23.4c11.6-14.9,42.7,9,51.3,17.4C79.7,346.6,99.9,377.6,111.8,408.2L111.8,408.2z"/>
			<path class="st3" d="M26.2,304.4l-0.6-0.4c-0.1,0.1-6,10.4-5.7,20.2c-9.2-10.5-14.6-17.5-14.8-17.7L4.6,307
				c0.2,0.2,5.6,7.1,14.7,17.5c-10-3.4-16.4-2.2-16.7-2.1l0.1,0.7c0.1,0,7-1.4,17.5,2.5c6.4,7.3,14.5,16.3,23.9,25.8
				c-17.7-7.7-31.6-8.1-31.7-8.1l0,0.7c0.1,0,14.7,0.4,33,8.7l0,0c7.1,7.2,14.9,14.8,23.1,22.2c-19.3-7-30.1-6.5-30.2-6.4l0,0.7
				c0.1,0,11.4-0.5,31.6,7l0,0c6.4,5.7,13.1,11.4,19.9,16.7c-15.3-5.4-22.7-5.8-22.8-5.8l0,0.7c0.1,0,8.1,0.5,24.6,6.5
				c6.6,5.1,13.3,9.9,20.1,14.2l0.4-0.6c-6.8-4.3-13.5-9.1-20.1-14.2c-5.7-10.5-1.5-27.6-1.5-27.8l-0.7-0.2c0,0.2-4,16.1,0.9,26.9
				c-7-5.5-13.8-11.2-20.4-17.1c-5.6-16,3.2-32.6,3.3-32.8l-0.6-0.3c-0.1,0.2-8.6,16.3-3.7,32.2c-8.3-7.5-16.2-15.2-23.4-22.5
				c-4.6-11.2,5.6-32,5.8-32.2l-0.6-0.3c-0.4,0.8-9.7,19.7-6.3,31.4c-9.3-9.6-17.5-18.5-23.9-25.9C20,315.2,26.2,304.5,26.2,304.4z"
				/>
		</g>
		<g>
			<path class="st4" d="M45.3,315.1c0,0-8.2-6.2-14.2-8.7c0,0,25.6,65.2,72.2,94.8l0.3-4l-25.2-53.2L45.3,315.1z"/>
			<g>
				<path class="st2" d="M112.8,409.5c-1.3-5.4-13.1-15.9-17.2-21c-13.4-16.8-25.9-33.6-37.5-51.7c-18.7-29.1-37.9-68.6-36.6-104.1
					c0.5-13.1,5.4-35.2,21.8-36.3c12.3-0.8,22,12.5,27.8,21.8c15.2,24.4,22.5,53,28.9,80.8c7.3,31.9,11.7,64.7,16.3,97.2
					L112.8,409.5z"/>
				<path class="st3" d="M96.7,365.7c-0.5-28.7,7.7-47.6,7.8-47.8l-1-0.4c-0.1,0.2-8,18.3-7.9,45.9c-5.2-11.6-9.9-22.8-14.3-33.5
					c3.1-38.9,13.3-52.8,13.4-53l-0.8-0.6c-0.4,0.6-10.2,13.8-13.5,51.4c-5.7-14.1-10.7-27.4-15-39.7c1.3-35.6,14.3-53.6,14.4-53.8
					l-0.8-0.6c-0.1,0.2-12.7,17.6-14.5,51.8c-5.4-15.2-9.7-28.8-13.2-40.5c-2.1-27.3,8.5-40.9,8.6-41l-0.8-0.7
					c-0.1,0.1-9.8,12.5-9,37.4c-7.9-27.1-11-42.9-11-43.3l-1,0.2c0.1,0.4,3.3,17.2,11.8,46c-4.2-3.9-17.2-15.4-27.9-17.1l-0.2,1
					c12.2,2,28.2,17.6,28.6,18.1c3.5,11.6,7.8,25.1,13.1,40.2c-4.3-4.6-16.3-15.5-37.7-18.7l-0.2,1c26.8,4.1,38.6,20.2,38.8,20.4
					l0.1,0.1c4.3,12.1,9.2,25.2,14.8,39.1c-4-3.8-14.8-12-34.9-14.8l-0.1,1c25.8,3.5,36,16.2,36.1,16.3l0,0c4,10,8.4,20.4,13.2,31.1
					c-3.4-3-10.6-7.2-25.7-10.5l-0.2,1c20.3,4.5,25.9,10.3,27.4,12.8c5.5,12.2,11.4,24.9,17.8,38l0.9-0.5
					C107.7,389.7,102,377.5,96.7,365.7z"/>
			</g>
		</g>
		<g>
			<path class="st2" d="M271,375.8c-2.3-7.9-3-19.3-3.9-28.9c-2-20-1.6-40.7,0.8-60.6c1.7-14.3,6.5-30.8,15.5-42.4
				c4.3-5.6,12.4-12.9,20.1-11.9c18.8,2.4,14.1,41.3,11.4,53C307.4,316.7,291.1,349.9,271,375.8L271,375.8z"/>
			<path class="st3" d="M316.4,249.1l0-0.7c-0.1,0-12,0.2-20.3,5.5c4.3-13.3,7.5-21.5,7.6-21.8l-0.7-0.3c-0.1,0.2-3.2,8.4-7.6,21.6
				c-2.2-10.4-6.5-15.2-6.7-15.4l-0.5,0.5c0,0.1,4.7,5.3,6.8,16.3c-3,9.3-6.5,20.8-10,33.7c-2.4-19.2-9.2-31.3-9.3-31.4l-0.6,0.4
				c0.1,0.1,7.2,12.8,9.4,32.9l0,0c-2.6,9.8-5.1,20.3-7.2,31.2c-3.9-20.1-9.9-29.2-9.9-29.2l-0.6,0.4c0.1,0.1,6.3,9.5,10.1,30.7l0,0
				c-1.6,8.4-3.1,17-4.2,25.6c-3.2-15.9-6.6-22.5-6.7-22.5l-0.6,0.3c0,0.1,3.7,7.2,7,24.5c-1,8.3-1.7,16.5-2,24.6l0.7,0
				c0.3-8,0.9-16.3,2-24.5c6.1-10.3,22.9-15.4,23.1-15.5l-0.2-0.7c-0.2,0-15.9,4.9-22.7,14.6c1.1-8.8,2.6-17.6,4.3-26.2
				c10.9-13,29.7-14,29.9-14l0-0.7c-0.2,0-18.4,0.9-29.6,13.3c2.2-11,4.7-21.7,7.3-31.7c7.3-9.7,30.4-11.5,30.7-11.6l-0.1-0.7
				c-0.9,0.1-21.9,1.8-30.2,10.7c3.4-12.9,7-24.5,10-33.8C303.9,249.3,316.3,249.1,316.4,249.1z"/>
		</g>
		<g>
			<path class="st4" d="M313.9,240.5c0,0,4.2,10.5,4.2,21.5l-40.9,110.4l-0.3-30.4C277,341.9,284.3,287.9,313.9,240.5z"/>
			<g>
				<path class="st2" d="M272.1,404.8c0-12.2,3.7-28.6,6.3-42.7c5.4-29.2,14.3-58.4,25.8-85.8c8.3-19.6,21.7-41,39.2-53.9
					c8.4-6.2,22.8-13.2,33.4-8.7c25.7,11,3.1,64.4-5.5,79.9C348,335.7,311.3,376.2,272.1,404.8L272.1,404.8z"/>
				<path class="st3" d="M388.3,243.4l0.3-1c-0.2,0-17.1-4.6-31-0.5c11.6-17.1,19.4-27.5,19.7-27.8l-0.8-0.6
					c-0.2,0.3-8.1,10.7-19.5,27.6c1.1-15.6-3.1-24.2-3.3-24.6l-0.9,0.5c0,0.1,4.6,9.4,3,25.9c-8.1,11.9-17.8,26.9-27.9,43.8
					c4.4-28.2-0.4-48.2-0.4-48.4l-1,0.2c0.1,0.2,5,21.2,0,50.5l0,0.1c-7.6,12.9-15.5,26.8-23,41.3c2.7-30.1-2.1-45.4-2.2-45.6
					l-1,0.3c0.1,0.2,5.1,16.1,1.9,47.7l0,0c-5.8,11.3-11.3,22.9-16.4,34.7c1.9-23.8-0.3-34.6-0.3-34.7l-1,0.2c0,0.1,2.4,11.7,0,37.6
					c-4.8,11.3-9.1,22.8-12.8,34.1l1,0.3c3.6-11.3,8-22.7,12.8-34.1c12.9-12.1,38.8-12.6,39.1-12.6l0-1c-0.3,0-24.5,0.4-38.1,11.4
					c5.2-12,10.8-24,16.8-35.5c20.8-14,47.8-7.7,48.1-7.6l0.2-1c-0.3-0.1-26.5-6.2-47.4,6.8c7.6-14.8,15.6-28.9,23.3-42
					c14.3-10.8,47.9-4,48.2-3.9l0.2-1c-1.3-0.3-31.8-6.4-47.2,2.9c10.2-17,19.9-32,28-43.9C370.4,238.6,388.1,243.3,388.3,243.4z"/>
			</g>
		</g>
	</g>
	<g>
		<ellipse class="st5" cx="187.5" cy="419.5" rx="98.2" ry="11.5"/>
		<g>
			<g>
				<g>
					<g>
						<path class="st6" d="M278.1,413.4c0,2.8-2.2,5-5,5H108.7c-2.8,0-5-2.2-5-5V61.7c0-2.8,2.2-5,5-5h164.5c2.8,0,5,2.2,5,5V413.4z
							"/>
					</g>
					<rect x="107" y="79.5" class="st7" width="167.8" height="296.7"/>
					<g>
						<circle class="st7" cx="190.9" cy="396.9" r="11.1"/>
						<path class="st8" d="M199.4,396.4c0,4.7-16.9,4.7-16.9,0c0-4.7,3.8-8.5,8.5-8.5C195.6,387.9,199.4,391.7,199.4,396.4z"/>
					</g>
					<polygon class="st9" points="107,411.9 107,62.4 274.8,62.4 					"/>
				</g>
				<g>
					<g>
						<defs>
							<rect id="SVGID_1_" x="58.5" y="-40.5" width="258" height="416.7"/>
						</defs>
						<clipPath id="SVGID_2_">
							<use xlink:href="#SVGID_1_"  style="overflow:visible;"/>
						</clipPath>
						<path class="st10" d="M187.5,356.8c3.5,33.4,18.5,114.9,22,125.4c13.1,38.9,19.2,112.2,19.2,112.2s0.9,2.1,15.1,2.5
							c14,0.5,17-3.3,17-3.3s1-12.9,1.1-34.3c0-40.4-6.8-88.3-6.8-96c0-52.5-1.7-98.9-4.7-158.7c0,0-64.8-0.2-119.4-0.2
							c-3.3,49.4-4.3,95.3-2.3,151.1c2.1,58.3,20.3,96.5,22,139.5c0.2,4.7,29.2,5.6,29.4,0.2c0,0-1.8-71-9.2-119.9L187.5,356.8z"/>
						<path class="st11" d="M130.4,308.8c6.2,8.8,41.4,13.4,56.9,13.4s55-2.5,63.3-12.3l-0.2-5.4l-55.7-1.6l-63.7,1.4L130.4,308.8z"
							/>
						<path class="st12" d="M135,176.6c0,35,3.4,65.3,1.4,89.7c-1.7,21.5-5.5,25.2-5.4,38.2c0,6.2,116,11.4,119.4,0.2
							c0.2-14.1-5.3-34.1-5.1-55.7c0.2-22.6,2.1-45.3,0.5-61l7.6-61.3c0,0-20.6-18-57.3-18c-36.7,0-57.2,15.2-57.2,15.2
							S135,151.6,135,176.6z"/>
						<path class="st13" d="M155.4,54.3c0.7,5.5,5,12.6,9.1,10.4c3.3-1.7,6.1-4.6,5.3-10.1c-0.7-5.5-3.6-8.2-8-9.1
							C157.1,44.6,154.7,48.7,155.4,54.3z"/>
						<path class="st14" d="M156.7,47.3c0.9-1.1,5.6-1.7,7,2.5l-0.5-3.9c0,0-1.5-0.7-3.3-0.4C157.5,45.8,156.7,47.3,156.7,47.3z"/>
						<path class="st13" d="M226.4,54.3c-0.7,5.5-5,12.6-9.1,10.4c-3.3-1.7-6.1-4.6-5.3-10.1c0.7-5.5,3.6-8.2,8-9.1
							C224.7,44.6,227.1,48.7,226.4,54.3z"/>
						<path class="st14" d="M225.1,47.3c-0.9-1.1-5.6-1.7-7,2.5l0.5-3.9c0,0,1.5-0.7,3.3-0.4C224.3,45.8,225.1,47.3,225.1,47.3z"/>
						<path class="st14" d="M210.2,80.6c-1.7,6,0.3,22.9,0.7,26.3c2,0.3,9.2,4.2,11.3,5c-1,6.1-9.2,22.3-29.2,22.3
							s-32.1-14.7-33.4-20c4.2-1.7,9.1-6.8,11.7-7.2c0,0,3.2-16.5,1.1-26.4L210.2,80.6z"/>
						<path class="st13" d="M210.1,81.1c0,0-0.8,4.4-0.5,8c0,0-10.9,11.7-18.6,11.7c-7.7,0-17.9-10.8-17.9-10.8s0.1-6.8-0.8-10
							L210.1,81.1z"/>
						<path class="st14" d="M163.2,42.8c0,15.3,12.4,27.7,27.7,27.7c15.3,0,27.7-12.4,27.7-27.7c0-20.6-12.4-30.4-27.7-30.4
							C175.6,12.4,163.2,22.7,163.2,42.8z"/>
						<path class="st14" d="M163.2,42.8c0,14.8,0,27.2,5.7,35.3c3.4,4.9,12.2,13.2,18.7,15.3c1.6,0.5,6.1,0.3,7.7-0.3
							c6.4-2.2,14.5-10.4,17.8-15c5.7-8.1,5.7-20.5,5.7-35.3"/>
						<path class="st15" d="M174.1,52.8c0,2.5,1.5,4.6,3.4,4.6c1.9,0,3.4-2,3.4-4.6c0-2.5-1.5-4.6-3.4-4.6
							C175.6,48.3,174.1,50.3,174.1,52.8z"/>
						<path class="st15" d="M200.3,52.8c0,2.5,1.5,4.6,3.4,4.6s3.4-2,3.4-4.6c0-2.5-1.5-4.6-3.4-4.6S200.3,50.3,200.3,52.8z"/>
						<g class="st16">
							<path class="st17" d="M181.9,42.3c0,0-0.2,0-0.5,0c-0.3,0-0.7,0.1-1.3,0.1c-0.5,0-1.1,0.1-1.8,0.2c-0.7,0.1-1.4,0.1-2.1,0.2
								c-0.7,0.1-1.4,0.2-2,0.3c-0.6,0.1-1.3,0.2-1.8,0.3c-1,0.2-1.8,0.3-1.8,0.3l0,0c-0.2,0-0.3-0.1-0.3-0.3c0-0.1,0.1-0.2,0.2-0.3
								c0,0,0.6-0.3,1.7-0.8c0.5-0.2,1.1-0.4,1.8-0.6c0.7-0.2,1.4-0.3,2.1-0.4c0.7-0.1,1.5-0.1,2.1-0.2c0.7,0,1.3,0,1.9,0.1
								c0.5,0,1,0.1,1.3,0.2c0.3,0.1,0.5,0.1,0.5,0.1l0,0c0.2,0,0.2,0.2,0.2,0.4C182.1,42.2,182,42.3,181.9,42.3z"/>
						</g>
						<g class="st16">
							<path class="st17" d="M200.3,41.7c0,0,0.2,0,0.5-0.1c0.3-0.1,0.8-0.1,1.3-0.2c0.5-0.1,1.2-0.1,1.9-0.1c0.7,0,1.4,0,2.1,0.2
								c0.7,0.1,1.5,0.2,2.1,0.4c0.7,0.2,1.3,0.3,1.8,0.5c1,0.4,1.7,0.7,1.7,0.7c0.1,0.1,0.2,0.2,0.1,0.4c-0.1,0.1-0.2,0.2-0.3,0.2
								l0,0c0,0-0.7-0.1-1.7-0.3c-0.5-0.1-1.1-0.2-1.8-0.3c-0.6-0.1-1.3-0.2-2-0.3c-0.7-0.1-1.4-0.2-2.1-0.2
								c-0.7-0.1-1.3-0.1-1.8-0.2c-0.5,0-1-0.1-1.3-0.1c-0.3,0-0.5,0-0.5,0c-0.2,0-0.3-0.2-0.3-0.3
								C200.1,41.9,200.2,41.8,200.3,41.7L200.3,41.7z"/>
						</g>
						<path class="st13" d="M195.8,67.5c-1.8-0.8-8.2-0.9-9.7,0c-1.5,0.9,3.2,2.1,4.8,2.1C192.6,69.6,197.2,68.3,195.8,67.5z"/>
						<path class="st18" d="M201.9,73.9c-5.8,2.1-15,2.9-20.6,2.9c-0.7,0-0.9,0.1,0,0.4c1.6,0.5,6.9,5.8,11,5.3
							c4.1-0.5,8.6-7.3,9.9-8.3C202.7,73.8,202.4,73.7,201.9,73.9z"/>
						<path class="st14" d="M193.9,207.5c0,0-10.3-4.2-9.7-12.2c0.3-4.5,4.1,0.4,8.3,3.1c6.1,4,10,5.8,14.3,16.2l-9.2,0L193.9,207.5
							z"/>
						<path class="st14" d="M206.8,214.5c1.8,1.4,22.4,11.3,22.4,11.3c8,4,28.6,11.3,28.6,11.3s-15.3-33.1-15.3-50.4
							c0-12.5,33.9-11.8,33.9-11.8s12.7,66.9,13.4,81.4c0.3,6.2-7.9,19.4-14.2,18.7c-22.2-2.5-76.7-42.4-80.2-44
							c-1.6-0.7-21.2,0-23.9-10.3c-3.9-7,9.8-22.3,14.7-19.2c-1.1,1.5-1.6,5,1.2,6.9c2.9,1.9,6.2,1.5,7.6-0.6"/>
						<path class="st13" d="M249.8,217.4c-2.3-6.7-1.8-16,3.5-16.3c5.2-0.3,20-2.2,25.4-14.2l-0.8-2.9l-34.8,9.4
							C243.1,193.5,245.9,210.6,249.8,217.4z"/>
						<path class="st12" d="M253.4,126.6c9.4,9.7,20.5,25.7,25.1,54.7c0.1,10.9-28.8,17.2-35.3,12.1c-2.4-9.4-7.4-38.9-7.4-38.9
							L253.4,126.6"/>
						<path class="st13" d="M171.9,213c-0.5,4,3.1,10,8.8,10.9c0,0-3.9-2-6.2-5.1C172.1,215.8,171.9,213,171.9,213z"/>
						<path class="st13" d="M174.3,208.8c-0.5,4,3.1,10,8.8,10.9c0,0-3.9-2-6.2-5.1C174.6,211.6,174.3,208.8,174.3,208.8z"/>
						<path class="st13" d="M96.6,335.5c-1.9,3.6-0.7,10.5,4.3,13.3c0,0-2.9-3.3-4-7C95.8,338.2,96.6,335.5,96.6,335.5z"/>
						<path class="st13" d="M91.3,336.2c-1.9,3.6,0.3,9.5,5.3,12.3c0,0-3.3-2.3-4.4-6C91.1,338.9,91.3,336.2,91.3,336.2z"/>
						<path class="st13" d="M87.5,337.1c-0.3,2.7-0.2,7.3,4.8,10.3c0,0-2.7-1.8-3.7-5.5C87.6,338.3,87.5,337.1,87.5,337.1z"/>
						<path class="st13" d="M177.7,205.1c-0.5,4,3.1,10,8.8,10.9c0,0-3.9-2-6.2-5.1C177.9,207.9,177.7,205.1,177.7,205.1z"/>
						<path class="st14" d="M218.8,54.5c0,0,2,2.2,1.7,3.5c-0.3,1.2-2.4,2.9-2.4,2.9L218.8,54.5z"/>
						<path class="st14" d="M163.2,54.5c0,0-2,2.2-1.7,3.5c0.3,1.2,2.4,2.9,2.4,2.9L163.2,54.5z"/>
						<path class="st16" d="M190.9,24.2c3.9,0,7.3-1.7,11.4-2.7c7.4-1.8,11,6.1,11,6.1c4.3,7,3.4,29,3.4,30.2c0.1,1.3,1.8,1.4,1.8,0
							c0,0,2.9-16.7,2.6-25.6c-0.4-11.8-4.4-26.5-19.6-23.3C190-4.1,173.1,7.6,162,2.8c-0.6-0.3-1.3,0.5-1.1,1.2
							c3.1,9.6,3.7,14.2,1.7,26.7c-1.8,11.4,0.6,23.8,0.6,26.7c0,1.7,1.9,1.4,1.9-0.1c0-2.3-0.7-25.4,3.7-31.9
							C174.1,17.6,187.1,24.2,190.9,24.2z"/>
						<line class="st19" x1="245.9" y1="307.9" x2="249.5" y2="386.7"/>
						<line class="st19" x1="242.6" y1="308.4" x2="246.1" y2="386.7"/>
						<line class="st19" x1="135.3" y1="306.7" x2="131.4" y2="386.7"/>
						<line class="st19" x1="138.4" y1="307.2" x2="134.8" y2="386.7"/>
						<linearGradient id="SVGID_3_" gradientUnits="userSpaceOnUse" x1="190.7924" y1="377.8719" x2="190.7924" y2="289.1591">
							<stop  offset="0" style="stop-color:#153556"/>
							<stop  offset="1" style="stop-color:#FFFFFF"/>
						</linearGradient>
						<rect x="106.8" y="289.2" class="st20" width="168" height="88.7"/>
						<path class="st14" d="M105.1,311.3c8.3,9.1,4.5,19.5,4.7,26.8c0.2,5,2.4,10.8-1.6,8.7c-7.1-3.7-4.6-15.9-4.6-15.9
							s-2.4,0.9-2.5,4.1c-0.2,5.4,0.9,10.9,3.6,10.7c0.2,5.8-13.4,2.5-15.9-0.2c-6-6.3-4.8-26.1-4.6-27.9c0.5-3.8,1.6-14.7,1.6-14.7
							c2.1-18.1,8.4-70.1,12-87.8c4.6-22.3,13.7-48.9,13.7-48.9l27.1-2.7l-2,29.3c0,0-0.6,15-17.9,40.3
							C118,257.2,102.3,296.7,105.1,311.3z"/>
						<path class="st13" d="M84.9,310.5c0,0,1.5,0.6,3.1,0c1.5-0.6,3.8-2.2,4.3-3.7l12.4,0.3l0.2-1.2l-13.5-1.3l-2.9,2.4l-3.3,1.9
							L84.9,310.5z"/>
						<polygon class="st16" points="104.8,305.7 90.5,304.7 91,298.6 105.3,299.6 						"/>
						<path class="st21" d="M105.9,302.7c-0.1,1.7-0.6,3.1-1,3c-0.4,0-0.7-1.4-0.6-3.1c0.1-1.7,0.6-3.1,1-3
							C105.7,299.6,106,301,105.9,302.7z"/>
						<g class="st16">
							<path class="st22" d="M93.2,298.7c0.2,0.9,0.2,1.8,0.1,2.8c-0.1,1.2-0.4,2.3-0.8,3.3l12.2,0.9l0.5-6.2L93.2,298.7z"/>
							<path class="st23" d="M93.2,298.7l-2.2-0.2l-0.5,6.2l2.1,0.1c0.4-1,0.7-2.1,0.8-3.3C93.5,300.5,93.4,299.6,93.2,298.7z"/>
						</g>
						<path class="st24" d="M90.8,301.4c-0.3,4.4-3,7.8-6,7.5c-3-0.2-5.1-4-4.8-8.4c0.3-4.4,3-7.8,6-7.5
							C89,293.3,91.1,297,90.8,301.4z"/>
						<path class="st25" d="M91.9,301.5c-0.3,4.4-3,7.8-6,7.5c-3-0.2-5.1-4-4.8-8.4c0.3-4.4,3-7.8,6-7.5
							C90.1,293.4,92.3,297.1,91.9,301.5z"/>
						<path class="st26" d="M89.2,301.3c-0.3,3.6-2.5,6.3-4.9,6.1c-2.4-0.2-4.2-3.2-3.9-6.8c0.3-3.5,2.5-6.3,4.9-6.1
							C87.7,294.7,89.4,297.8,89.2,301.3z"/>
						<path class="st25" d="M85.7,301c-0.1,1-0.7,1.8-1.3,1.8c-0.6,0-1.1-0.9-1-2c0.1-1,0.7-1.8,1.3-1.8
							C85.3,299.1,85.8,300,85.7,301z"/>
						<line class="st27" x1="84.6" y1="301" x2="83" y2="297.1"/>
						<line class="st27" x1="84.6" y1="301" x2="86.9" y2="302"/>
						<path class="st18" d="M82.4,307.1l5.4-12.1c0,0-2-2.2-4.9-0.2c-2.9,2-3,6.4-2.7,8.5C80.6,305.3,82.4,307.1,82.4,307.1z"/>
						<path class="st13" d="M129.2,214.7c2.6-4.9-15.1-6.6-19.9-13.7c-4.8-7.1-4.3-14.2-4.3-14.2l29.1,16.3
							C134.2,203.1,131.3,210.2,129.2,214.7z"/>
						<path class="st12" d="M138.8,123.8c-9.2,6.9-21,18.2-33.3,57.8c-5.8,18.7,28.4,24,29.8,21c1.4-3.1,8.5-25.2,8.5-25.2"/>
					</g>
					<g>
						<g>
							<line class="st28" x1="119.9" y1="360.3" x2="255.1" y2="360.3"/>
							<line class="st29" x1="119.9" y1="360.3" x2="150" y2="360.3"/>
						</g>
						<path class="st30" d="M152.7,360.3c0,1.5-1.2,2.7-2.7,2.7s-2.7-1.2-2.7-2.7s1.2-2.7,2.7-2.7S152.7,358.8,152.7,360.3z"/>
					</g>
					<g>
						<g>
							<defs>
								<rect id="SVGID_4_" x="253.2" y="84.6" width="14.6" height="7.9"/>
							</defs>
							<clipPath id="SVGID_5_">
								<use xlink:href="#SVGID_4_"  style="overflow:visible;"/>
							</clipPath>
							<path class="st31" d="M267.6,84.6h-13c-0.1,0-0.2,0.1-0.2,0.2v1.9h-1c-0.1,0-0.2,0.1-0.2,0.2v3.3c0,0.1,0.1,0.2,0.2,0.2h1
								v1.9c0,0.1,0.1,0.2,0.2,0.2h13c0.1,0,0.2-0.1,0.2-0.2v-7.5C267.8,84.7,267.7,84.6,267.6,84.6L267.6,84.6z M265.8,90.4h-4.1
								v-3.8h4.1V90.4z"/>
						</g>
						<path class="st0" d="M249.5,88.6L249.5,88.6c0.2-0.4,0.3-0.8,0.3-1.2c0-1.5-1.3-2.8-2.8-2.8c-1.6,0-2.8,1.3-2.8,2.8
							c0,0.5,0.1,0.9,0.3,1.3l0,0c0,0,0,0.1,0.1,0.2c0,0.1,0.1,0.1,0.1,0.2c0.5,0.8,1.8,2.9,2,3.2c0.3,0.4,0.4,0.3,0.6,0
							c0.1-0.2,1.5-2.4,2-3.3c0-0.1,0.1-0.1,0.1-0.2C249.4,88.7,249.5,88.6,249.5,88.6z M247,86c0.8,0,1.4,0.6,1.4,1.4
							c0,0.8-0.6,1.4-1.4,1.4c-0.8,0-1.4-0.6-1.4-1.4C245.5,86.6,246.2,86,247,86z"/>
						<rect x="233.6" y="88.8" class="st32" width="0.8" height="3.1"/>
						<rect x="236.3" y="86.7" class="st32" width="0.8" height="5.2"/>
						<rect x="239.1" y="84.7" class="st32" width="0.8" height="7.1"/>
					</g>
					<path class="st0" d="M131,101.5c1.2-0.6,2-1.8,2-3.2l0,0c0-1.3-0.7-2.4-1.8-3c-0.7-3-3.6-5.3-7.1-5.3c-3.7,0-6.8,2.6-7.2,5.9
						c-0.7,0.6-1.1,1.5-1.1,2.5c0,1.9,1.6,3.5,3.5,3.5c0.1,0,0.2-0.1,0.2-0.2V95c0-0.1-0.1-0.2-0.2-0.2c-0.2,0-0.3,0-0.5,0
						c0.8-1.9,2.8-3.3,5.2-3.3c2.4,0,4.5,1.4,5.2,3.3c-0.1,0-0.1,0.1-0.1,0.2v6.5c0,0.1,0.1,0.2,0.2,0.2c0.1,0,0.2,0,0.2,0
						C129.9,101.8,130.6,101.6,131,101.5z"/>
				</g>
			</g>
			<path class="st33" d="M114.7,0H41.9C24,0,9.3,14.7,9.3,32.6v33c0,17.9,14.7,32.6,32.6,32.6h54.3l10.3,13.4
				c2.1,2.8,6.5,2.3,7.9-0.9l6-13c15.2-2.8,26.8-16.1,26.8-32.1v-33C147.3,14.7,132.6,0,114.7,0z M41.9,59.3c-5,0-9-4-9-9
				c0-5,4-9,9-9c5,0,9,4,9,9C50.9,55.2,46.9,59.3,41.9,59.3z M78.5,59.3c-5,0-9-4-9-9c0-5,4-9,9-9c5,0,9,4,9,9
				C87.5,55.2,83.5,59.3,78.5,59.3z M115.1,59.3c-5,0-9-4-9-9c0-5,4-9,9-9c5,0,9,4,9,9C124.1,55.2,120,59.3,115.1,59.3z"/>
		</g>
	</g>
</g>
</svg>
